<svg xmlns="http://www.w3.org/2000/svg" width="640" height="480" viewBox="0 0 640 480"><path fill="#EAEAEA" d="M320 440c-110.41 0-200-89.59-200-200S209.59 40 320 40s200 89.59 200 200-89.59 200-200 200zm0-341.667c-78.128 0-141.667 63.55-141.667 141.667 0 78.115 63.54 141.666 141.667 141.666S461.667 318.116 461.667 240 398.127 98.333 320 98.333zM420 254.31l-141.667 83.335c-2.608 1.57-5.47 2.355-8.333 2.355s-5.725-.785-8.333-2.077c-5.206-3.14-8.334-8.61-8.334-14.59V156.666c0-5.977 3.128-11.45 8.334-14.59 5.205-2.86 11.714-2.86 16.666.28L420 225.688c5.205 2.86 8.333 8.332 8.333 14.31 0 5.977-3.128 11.45-8.333 14.31z" opacity=".4"/><text transform="translate(145.955 243.41)"><tspan x="0" y="0" font-family="'Helvetica'" font-size="18">video content will be added</tspan><tspan x="297.043" y="0" font-family="'Helvetica-Bold'" font-size="18">soon</tspan></text></svg>