<svg xmlns="http://www.w3.org/2000/svg" width="60" height="60" viewBox="0 0 60 60"><path fill="#fff" d="M42.273 18C43.94 16.53 45 14.39 45 12c0-4.41-3.59-8-8-8-3.01 0-5.635 1.674-7 4.137C28.635 5.674 26.01 4 23 4c-4.41 0-8 3.59-8 8 0 2.39 1.06 4.532 2.726 6H6v38h48V18H42.273zM52 20v16H31V20h1.277l4.854 8.495 1.738-.992L34.58 20H52zm-22-3.985L31.134 18h-2.268L30 16.015zM37 6c3.31 0 6 2.692 6 6 0 3.31-2.69 6-6 6s-6-2.69-6-6c0-3.308 2.69-6 6-6zm-20 6c0-3.308 2.69-6 6-6s6 2.692 6 6c0 3.31-2.69 6-6 6s-6-2.69-6-6zm8.42 8l-4.288 7.503 1.736.992L27.722 20H29v16H8V20h17.42zM8 38h21v16H8V38zm23 16V38h21v16H31z"/></svg>