<svg xmlns="http://www.w3.org/2000/svg" width="60" height="60" viewBox="0 0 60 60"><path fill="#fff" d="M52.5 2c-2.757 0-5 2.242-5 4.998 0 1.737.893 3.27 2.24 4.165L40.288 36.08c-.263-.042-.524-.08-.798-.08-1.2 0-2.285.44-3.147 1.146l-9.46-7.813c.373-.7.604-1.486.604-2.333 0-2.757-2.243-5-5-5s-5 2.243-5 5c0 1.49.668 2.814 1.705 3.73L9.112 48.29c-.51-.176-1.044-.29-1.61-.29C4.74 48 2.5 50.24 2.5 52.996c0 2.76 2.243 5.003 5 5.003 2.758 0 5-2.245 5-5.004 0-1.47-.65-2.78-1.663-3.695l10.09-17.575c.495.164 1.012.274 1.56.274 1.187 0 2.263-.434 3.12-1.126l9.47 7.82c-.362.694-.588 1.47-.588 2.305 0 2.756 2.24 5 4.998 5 2.76 0 5-2.244 5-5 0-1.775-.937-3.326-2.332-4.215l9.44-24.877c.294.053.593.09.902.09 2.757 0 5-2.244 5-5.002C57.5 4.242 55.258 2 52.5 2zm-45 54c-1.653 0-3-1.348-3-3.003C4.5 51.344 5.847 50 7.5 50c1.654 0 3 1.344 3 2.997 0 1.655-1.346 3.003-3 3.003zm14.987-26c-1.654 0-3-1.346-3-3s1.346-3 3-3 3 1.346 3 3-1.345 3-3 3zM39.49 44c-1.655 0-3-1.346-3-3s1.345-3 3-3c1.654 0 3 1.346 3 3s-1.345 3-3 3zM52.5 10c-1.654 0-3-1.347-3-3.002C49.5 5.345 50.846 4 52.5 4s3 1.345 3 2.998c0 1.655-1.346 3.002-3 3.002z"/></svg>