<svg xmlns="http://www.w3.org/2000/svg" width="60" height="60" viewBox="0 0 60 60"><path d="M30.105 21.687c-4.418 0-8 3.58-8 8 0 4.418 3.582 8.002 8 8.002 4.42 0 8-3.586 8-8.003 0-4.42-3.58-8-8-8zm0 14.002c-3.31 0-6-2.695-6-6.003 0-3.31 2.69-6 6-6 3.308 0 6 2.69 6 6 0 3.308-2.692 6-6 6zm0-22.002c-8.838 0-16 7.162-16 16 0 8.837 7.162 16 16 16s16-7.162 16-16c0-8.838-7.164-16-16-16zm0 30c-7.72 0-14-6.28-14-14s6.28-14 14-14 14 6.28 14 14-6.28 14-14 14zm23.895-14c0-13.256-10.745-24-24-24s-24 10.744-24 24c0 7.304 3.268 13.843 8.416 18.244l-4.094 5.133 1.564 1.248 4.103-5.145c3.94 2.842 8.777 4.52 14.01 4.52 5.207 0 10.023-1.664 13.957-4.482l4.08 5.107 1.56-1.248-4.063-5.09C50.712 43.572 54 37.015 54 29.688zm-46 0c0-12.13 9.87-22 22-22s22 9.87 22 22-9.87 22-22 22-22-9.87-22-22z" fill="#484B50"/></svg>