<svg xmlns="http://www.w3.org/2000/svg" width="60" height="60" viewBox="0 0 60 60"><path fill="#484B50" d="M30 6C16.746 6 6 16.744 6 30c0 13.255 10.745 24 24 24 13.256 0 24-10.746 24-24C54 16.745 43.255 6 30 6zm-.002 35C23.934 41 19 36.065 19 30s4.935-11 11-11h.002C36.066 19 41 23.935 41 30c0 6.064-4.935 11-11.002 11zm11.998-16.014l7.556-5.052C51.112 22.954 52 26.374 52 30c0 3.58-.865 6.96-2.39 9.95l-7.568-5.062C42.655 33.378 43 31.73 43 30c0-1.777-.358-3.47-1.004-5.014zm6.555-6.788l-7.482 5.004c-1.088-1.768-2.583-3.25-4.36-4.324l5.007-7.486c2.75 1.736 5.087 4.064 6.837 6.806zm-8.58-7.8l-5.06 7.567c-1.513-.618-3.17-.965-4.907-.965H30c-1.738 0-3.393.347-4.908.966L20.03 10.4C23.025 8.867 26.412 8 30 8s6.976.87 9.97 2.4zm-21.68.992l5.007 7.487c-1.78 1.076-3.28 2.563-4.368 4.335l-7.486-5.006c1.75-2.745 4.092-5.077 6.845-6.816zm-7.846 8.553L18 24.997c-.643 1.54-1 3.23-1 5.003 0 1.726.344 3.37.954 4.876l-7.57 5.063C8.864 36.95 8 33.573 8 30c0-3.622.886-7.04 2.443-10.057zm.93 21.74l7.486-5.006c1.08 1.8 2.58 3.312 4.372 4.408l-5.006 7.484c-2.763-1.76-5.11-4.115-6.854-6.887zm8.592 7.884l5.055-7.56c1.535.64 3.214.993 4.98.993 1.766 0 3.447-.355 4.982-.993l5.055 7.56C37.025 51.117 33.615 52 30 52c-3.614 0-7.023-.882-10.035-2.433zm21.81-1l-5.006-7.484c1.785-1.094 3.283-2.602 4.363-4.396l7.487 5.008c-1.743 2.766-4.086 5.117-6.845 6.873z"/></svg>